#!OML:ASF X:\für Bonn\!DataBase\2005_08_11_Bastian_Final\c3d\Bastian.ASF
:FULLY-SPECIFIED
:DEGREES
1665
root -4.79481 13.8851 -17.5349 133.862 42.6009 -193.44
lowerback 9.75719 -6.73333 19.917
upperback 10.6744 -4.91719 13.1279
thorax 5.68558 -0.312705 3.9759
lowerneck 11.1843 -2.85598 3.37275
upperneck 8.20305 -1.57301 -18.918
head 0.26837 -0.0501911 -6.30031
rclavicle -7.95139e-016 4.77083e-014
rhumerus -169.861 -197.035 112.835
rradius 50.6561
rwrist -176.627
rhand -23.6586 7.2662
rfingers 7.12502
rthumb 2.80709 -22.6951
lclavicle -7.95139e-016 4.77083e-014
lhumerus -34.9817 10.9835 83.492
lradius 51.5517
lwrist 214.183
lhand -27.0704 14.6929
lfingers 7.12502
lthumb -0.488097 44.6721
rfemur 17.5109 9.57085 -8.52642
rtibia 73.3981
rfoot -21.0872 -35.0105
rtoes -2.99417
lfemur 4.41524 19.7572 -19.7821
ltibia 77.9399
lfoot -32.3038 -17.3832
ltoes 6.98537
1666
root -4.80168 13.9214 -17.5521 134.177 42.5613 -193.154
lowerback 9.78492 -6.75821 19.936
upperback 10.7911 -4.94353 13.0964
thorax 5.79959 -0.30356 3.94259
lowerneck 11.1924 -2.62091 3.2005
upperneck 7.826 -1.3583 -18.7407
head 0.189754 0.0558969 -6.21935
rclavicle -6.67916e-014 -2.48083e-013
rhumerus -171.255 -197.175 112.558
rradius 50.3949
rwrist -176.567
rhand -24.0173 6.51372
rfingers 7.12502
rthumb 2.46064 -23.4518
lclavicle -6.67916e-014 -2.48083e-013
lhumerus -34.5966 9.99153 84.4603
lradius 53.2272
lwrist 212.725
lhand -26.6697 16.0068
lfingers 7.12502
lthumb -0.101078 45.9866
rfemur 17.3665 9.87916 -8.10212
rtibia 73.3076
rfoot -20.2223 -34.5129
rtoes -4.27089
lfemur 4.49236 19.721 -19.6697
ltibia 77.5826
lfoot -32.08 -17.443
ltoes 7.26793
1667
root -4.80919 13.9623 -17.566 134.506 42.5958 -192.951
lowerback 9.77676 -6.76622 19.9562
upperback 10.9263 -4.96509 13.0657
thorax 5.95678 -0.29004 3.9087
lowerneck 11.1533 -2.35203 2.96969
upperneck 7.43122 -1.10643 -18.5552
head 0.11794 0.177215 -6.12722
rclavicle -3.89618e-014 7.95139e-014
rhumerus -172.471 -197.713 112.436
rradius 50.4657
rwrist -174.955
rhand -24.6566 5.70815
rfingers 7.12502
rthumb 1.8432 -24.2636
lclavicle -3.89618e-014 7.95139e-014
lhumerus -34.193 8.8586 85.4396
lradius 54.8146
lwrist 211.616
lhand -26.2535 17.0632
lfingers 7.12502
lthumb 0.300949 47.0427
rfemur 17.1408 10.2817 -7.60953
rtibia 73.2043
rfoot -19.2236 -34.1208
rtoes -6.22611
lfemur 4.50796 19.7139 -19.6051
ltibia 77.1683
lfoot -31.8125 -17.4764
ltoes 7.5902
1668
root -4.81788 14.0075 -17.5763 134.837 42.7056 -192.84
lowerback 9.75011 -6.75756 19.9719
upperback 11.058 -4.97682 13.0315
thorax 6.12187 -0.274523 3.87054
lowerneck 11.1432 -2.05783 2.62065
upperneck 6.98835 -0.842997 -18.3044
head 0.030341 0.304858 -5.99471
rclavicle -6.36111e-015 -1.08139e-013
rhumerus -173.608 -198.731 112.446
rradius 50.839
rwrist -172.448
rhand -25.2897 5.24892
rfingers 7.12502
rthumb 1.23175 -24.7273
lclavicle -6.36111e-015 -1.08139e-013
lhumerus -33.817 7.68415 86.3869
lradius 56.2955
lwrist 210.889
lhand -26.0666 17.6975
lfingers 7.12502
lthumb 0.481429 47.6767
rfemur 16.8245 10.7593 -7.08187
rtibia 73.0907
rfoot -18.1184 -33.8232
rtoes -8.20008
lfemur 4.44692 19.7806 -19.5762
ltibia 76.7085
lfoot -31.5185 -17.4487
ltoes 7.81926
1669
root -4.82773 14.0577 -17.5852 135.149 42.9055 -192.782
lowerback 9.75292 -6.7451 20.0084
upperback 11.1878 -4.97116 13.012
thorax 6.27046 -0.250507 3.83914
lowerneck 11.2058 -1.76353 2.26047
upperneck 6.45509 -0.592107 -18.1199
head -0.100094 0.437212 -5.88209
rclavicle 7.71285e-014 -1.46306e-013
rhumerus -174.642 -199.956 112.565
rradius 51.3156
rwrist -169.532
rhand -25.9963 4.95949
rfingers 7.12502
rthumb 0.549355 -25.0196
lclavicle 7.71285e-014 -1.46306e-013
lhumerus -33.46 6.51996 87.3061
lradius 57.6208
lwrist 210.529
lhand -26.4205 17.8467
lfingers 7.12502
lthumb 0.139648 47.8264
rfemur 16.5152 11.3816 -6.43322
rtibia 72.9469
rfoot -17.2416 -33.6074
rtoes -9.79952
lfemur 4.38497 19.8291 -19.5966
ltibia 76.1848
lfoot -31.231 -17.3329
ltoes 7.8902
1670
root -4.838 14.1146 -17.5918 135.507 43.1425 -192.769
lowerback 9.70865 -6.71565 20.0674
upperback 11.2967 -4.96255 12.9749
thorax 6.41922 -0.227813 3.772
lowerneck 11.234 -1.45886 1.83984
upperneck 5.96246 -0.328811 -17.8666
head -0.211741 0.570556 -5.73879
rclavicle -4.29375e-014 -2.54444e-014
rhumerus -175.622 -200.983 112.63
rradius 51.7424
rwrist -166.659
rhand -26.768 4.67877
rfingers 7.12502
rthumb -0.195974 -25.3009
lclavicle -4.29375e-014 -2.54444e-014
lhumerus -33.0978 5.40356 88.1219
lradius 58.7842
lwrist 210.457
lhand -27.2899 17.6489
lfingers 7.12502
lthumb -0.700094 47.6275
rfemur 16.1573 12.057 -5.72229
rtibia 72.7807
rfoot -16.5459 -33.4994
rtoes -11.1383
lfemur 4.25266 19.8731 -19.6903
ltibia 75.5987
lfoot -30.9068 -17.1392
ltoes 8.09916
1671
root -4.849 14.1738 -17.5957 135.824 43.4487 -192.801
lowerback 9.69652 -6.68639 20.1449
upperback 11.4287 -4.94791 12.9194
thorax 6.57561 -0.198782 3.6774
lowerneck 11.2118 -1.15544 1.45976
upperneck 5.45922 -0.0625495 -17.6631
head -0.321411 0.705621 -5.61896
rclavicle -3.02153e-014 -6.36111e-014
rhumerus -176.524 -201.573 112.618
rradius 51.9978
rwrist -164.468
rhand -26.7011 4.74801
rfingers 7.12502
rthumb -0.131371 -25.2317
lclavicle -3.02153e-014 -6.36111e-014
lhumerus -32.7221 4.26764 88.8401
lradius 59.8461
lwrist 210.67
lhand -28.3918 17.4558
lfingers 7.12502
lthumb -1.76431 47.4283
rfemur 15.8648 12.8134 -4.94425
rtibia 72.5548
rfoot -15.7583 -33.5308
rtoes -12.4897
lfemur 4.1333 19.9448 -19.7757
ltibia 74.9687
lfoot -30.5407 -16.9763
ltoes 8.44751
1672
root -4.86067 14.2363 -17.5971 136.158 43.7874 -192.866
lowerback 9.70014 -6.64779 20.2308
upperback 11.51 -4.9155 12.8591
thorax 6.6643 -0.17049 3.56797
lowerneck 11.2929 -0.843467 1.04129
upperneck 4.95366 0.20975 -17.4169
head -0.449237 0.849823 -5.48172
rclavicle -7.95139e-015 -1.84472e-013
rhumerus -177.542 -201.862 112.647
rradius 52.2332
rwrist -163.247
rhand -26.619 4.86058
rfingers 7.12502
rthumb -0.0521122 -25.1192
lclavicle -7.95139e-015 -1.84472e-013
lhumerus -32.4236 3.17486 89.5079
lradius 60.799
lwrist 210.914
lhand -29.503 17.3819
lfingers 7.12502
lthumb -2.83744 47.3428
rfemur 15.5801 13.5802 -4.15255
rtibia 72.265
rfoot -14.8534 -33.6669
rtoes -14.0233
lfemur 3.97163 20.0045 -19.9121
ltibia 74.2964
lfoot -30.1875 -16.7054
ltoes 8.52606
1673
root -4.87255 14.2999 -17.5964 136.488 44.1495 -192.975
lowerback 9.70406 -6.58251 20.3351
upperback 11.559 -4.85174 12.7798
thorax 6.71543 -0.132825 3.42193
lowerneck 11.3725 -0.547559 0.651355
upperneck 4.50046 0.471606 -17.1534
head -0.56468 0.987066 -5.34473
rclavicle -1.10524e-013 2.13097e-013
rhumerus -178.667 -202.119 112.836
rradius 52.5071
rwrist -163.056
rhand -26.4184 5.16457
rfingers 7.12502
rthumb 0.141631 -24.8151
lclavicle -1.10524e-013 2.13097e-013
lhumerus -32.1863 2.08514 90.1237
lradius 61.7322
lwrist 211.067
lhand -30.7071 17.1915
lfingers 7.12502
lthumb -4.00029 47.1337
rfemur 15.3207 14.3583 -3.38534
rtibia 71.8826
rfoot -13.7778 -33.9064
rtoes -15.7716
lfemur 3.77961 20.0862 -20.0716
ltibia 73.5874
lfoot -29.8047 -16.4346
ltoes 8.70435
1674
root -4.88469 14.3661 -17.593 136.813 44.5327 -193.07
lowerback 9.71756 -6.52478 20.4751
upperback 11.6112 -4.79502 12.6752
thorax 6.76097 -0.0956489 3.2306
lowerneck 11.4162 -0.249822 0.357965
upperneck 4.08261 0.752417 -16.9149
head -0.664912 1.13123 -5.2332
rclavicle -1.05753e-013 2.8625e-014
rhumerus -179.862 -202.212 112.998
rradius 52.8575
rwrist -163.334
rhand -26.0678 5.66078
rfingers 7.12502
rthumb 0.480293 -24.3184
lclavicle -1.05753e-013 2.8625e-014
lhumerus -31.9378 1.08692 90.7554
lradius 62.5747
lwrist 211.007
lhand -31.8475 16.9909
lfingers 7.12502
lthumb -5.10143 46.9095
rfemur 15.1388 15.1157 -2.62262
rtibia 71.4123
rfoot -12.7763 -34.1118
rtoes -17.0399
lfemur 3.62998 20.1755 -20.1872
ltibia 72.8402
lfoot -29.4148 -16.1632
ltoes 8.77168
1675
root -4.8972 14.4361 -17.5875 137.101 44.8674 -193.206
lowerback 9.74336 -6.47064 20.5344
upperback 11.6625 -4.747 12.5673
thorax 6.80118 -0.069792 3.07609
lowerneck 11.376 0.0369482 0.112162
upperneck 3.72422 1.03906 -16.7245
head -0.735798 1.2739 -5.14417
rclavicle -6.44062e-014 -1.81292e-013
rhumerus -181.027 -202.15 113.138
rradius 53.2101
rwrist -163.766
rhand -25.7365 6.28881
rfingers 7.12502
rthumb 0.800237 -23.6894
lclavicle -6.44062e-014 -1.81292e-013
lhumerus -31.6974 0.126926 91.3967
lradius 63.3455
lwrist 210.878
lhand -32.8987 16.7551
lfingers 7.12502
lthumb -6.11643 46.6468
rfemur 15.0054 15.7911 -1.99733
rtibia 70.8516
rfoot -11.6316 -34.26
rtoes -18.2784
lfemur 3.49787 20.2572 -20.3535
ltibia 72.0374
lfoot -29.0027 -15.8729
ltoes 8.705
1676
root -4.90901 14.5089 -17.5803 137.4 45.2023 -193.314
lowerback 9.74705 -6.43523 20.5846
upperback 11.73 -4.73109 12.4573
thorax 6.8705 -0.0561803 2.9271
lowerneck 11.2336 0.343332 -0.0803615
upperneck 3.44823 1.37671 -16.5531
head -0.762897 1.43386 -5.07001
rclavicle -5.52621e-014 -1.59028e-014
rhumerus -182.099 -201.979 113.303
rradius 53.5484
rwrist -164.079
rhand -25.482 6.67639
rfingers 7.12502
rthumb 1.04601 -23.3008
lclavicle -5.52621e-014 -1.59028e-014
lhumerus -31.4188 -0.791186 91.9999
lradius 64.0417
lwrist 210.688
lhand -33.8435 16.4211
lfingers 7.12502
lthumb -7.0285 46.2844
rfemur 14.94 16.452 -1.36233
rtibia 70.2096
rfoot -10.5938 -34.3925
rtoes -19.5311
lfemur 3.40175 20.3554 -20.4608
ltibia 71.1893
lfoot -28.5439 -15.6035
ltoes 8.6312
1677
root -4.92075 14.5862 -17.5717 137.678 45.4702 -193.468
lowerback 9.74302 -6.41155 20.5285
upperback 11.7759 -4.74208 12.3454
thorax 6.91972 -0.068147 2.82773
lowerneck 11.1699 0.616781 -0.213189
upperneck 3.06966 1.66095 -16.4965
head -0.839358 1.58137 -5.04209
rclavicle -1.19668e-013 6.04305e-014
rhumerus -183.164 -201.817 113.518
rradius 53.9265
rwrist -164.284
rhand -25.2203 6.92194
rfingers 7.12502
rthumb 1.29877 -23.0538
lclavicle -1.19668e-013 6.04305e-014
lhumerus -31.1806 -1.68672 92.581
lradius 64.703
lwrist 210.438
lhand -34.5714 15.9814
lfingers 7.12502
lthumb -7.73108 45.8201
rfemur 14.9396 17.1149 -0.785736
rtibia 69.4991
rfoot -9.64933 -34.5239
rtoes -20.7269
lfemur 3.32735 20.4562 -20.6333
ltibia 70.2759
lfoot -28.0788 -15.3256
ltoes 8.55865
